<svg width="31" height="18" viewBox="0 0 31 18" fill="none" xmlns="http://www.w3.org/2000/svg">
<g id="bgAsset 324 2" clip-path="url(#clip0_2_19)">
<g id="Layer 2">
<g id="Graphic Elements">
<path id="Vector" d="M21.3294 12.8099C21.2645 12.6565 15.9389 2.24947 15.8516 2.10605C15.6677 1.67165 15.3949 1.27931 15.0503 0.953531C14.7057 0.627751 14.2967 0.375526 13.8489 0.212607C13.401 0.0496887 12.9239 -0.0204255 12.4473 0.00664302C11.9707 0.0337115 11.5049 0.157381 11.079 0.36993C10.6531 0.582479 10.2761 0.879342 9.97174 1.24198C9.66736 1.60462 9.44206 2.02525 9.30991 2.47761C9.17776 2.92996 9.14161 3.40432 9.2037 3.87107C9.26579 4.33782 9.42479 4.78694 9.67078 5.19038C9.73559 5.34383 14.833 15.3048 14.9202 15.4483C14.9852 15.6022 15.0615 15.7513 15.1485 15.8943C15.3324 16.3287 15.6052 16.721 15.9498 17.0468C16.2944 17.3725 16.7034 17.6248 17.1513 17.7877C17.5992 17.9506 18.0763 18.0207 18.5529 17.9936C19.0294 17.9666 19.4952 17.8429 19.9212 17.6303C20.3471 17.4178 20.724 17.1209 21.0284 16.7583C21.3328 16.3956 21.5581 15.975 21.6902 15.5227C21.8224 15.0703 21.8585 14.596 21.7964 14.1292C21.7344 13.6625 21.5754 13.2133 21.3294 12.8099Z" fill="#173D33"/>
<path id="Vector_2" d="M15.1793 5.76773C15.5058 5.42461 15.7571 5.0188 15.9175 4.57563C16.0779 4.13246 16.1439 3.66145 16.1115 3.19199C16.079 2.72254 15.9488 2.26472 15.7289 1.84711C15.509 1.4295 15.2042 1.06107 14.8335 0.764809C14.4628 0.468548 14.0341 0.25082 13.5743 0.125214C13.1145 -0.000390954 12.6333 -0.0311773 12.1608 0.0347771C11.6884 0.100731 11.2348 0.262011 10.8284 0.508548C10.422 0.755086 10.0714 1.08159 9.79868 1.46768C9.68415 1.58801 1.03676 12.0974 0.940665 12.2331C0.614149 12.5762 0.36286 12.982 0.202481 13.4252C0.0421021 13.8684 -0.0239231 14.3394 0.00852645 14.8088C0.040976 15.2783 0.171204 15.7361 0.391081 16.1537C0.610959 16.5713 0.915765 16.9398 1.28648 17.236C1.65719 17.5323 2.08584 17.75 2.54569 17.8756C3.00554 18.0012 3.4867 18.032 3.95915 17.966C4.4316 17.9001 4.88519 17.7388 5.29161 17.4923C5.69803 17.2457 6.04856 16.9192 6.32131 16.5331C6.43584 16.4128 15.0832 5.90344 15.1793 5.76773Z" fill="#97D28B"/>
<path id="Vector_3" d="M30.0596 5.76774C30.3861 5.42462 30.6374 5.01881 30.7977 4.57564C30.9581 4.13247 31.0242 3.66146 30.9917 3.192C30.9593 2.72255 30.829 2.26472 30.6092 1.84711C30.3893 1.4295 30.0845 1.06107 29.7138 0.764809C29.3431 0.468548 28.9144 0.250819 28.4546 0.125214C27.9947 -0.00039146 27.5135 -0.0311774 27.0411 0.0347777C26.5686 0.100733 26.1151 0.262013 25.7086 0.508552C25.3022 0.755091 24.9517 1.0816 24.6789 1.46769C24.5644 1.58802 15.917 12.0974 15.8209 12.2331C15.4944 12.5762 15.2431 12.982 15.0827 13.4252C14.9224 13.8684 14.8563 14.3394 14.8888 14.8088C14.9212 15.2783 15.0515 15.7361 15.2713 16.1537C15.4912 16.5713 15.796 16.9398 16.1667 17.236C16.5374 17.5323 16.9661 17.75 17.4259 17.8756C17.8858 18.0012 18.3669 18.032 18.8394 17.9661C19.3118 17.9001 19.7654 17.7388 20.1719 17.4923C20.5783 17.2457 20.9288 16.9192 21.2016 16.5331C21.3161 16.4128 29.9635 5.90345 30.0596 5.76774Z" fill="#97D28B"/>
</g>
</g>
</g>
<defs>
<clipPath id="clip0_2_19">
<rect width="31" height="18" fill="white"/>
</clipPath>
</defs>
</svg>
